<?xml version="1.0" standalone="no"?>
<!DOCTYPE svg PUBLIC "-//W3C//DTD SVG 20010904//EN"
 "http://www.w3.org/TR/2001/REC-SVG-20010904/DTD/svg10.dtd">
<svg version="1.0" xmlns="http://www.w3.org/2000/svg"
 width="856.000000pt" height="856.000000pt" viewBox="0 0 856.000000 856.000000"
 preserveAspectRatio="xMidYMid meet">
<metadata>
Created by potrace 1.11, written by Peter Selinger 2001-2013
</metadata>
<g transform="translate(0.000000,856.000000) scale(0.100000,-0.100000)"
fill="#000000" stroke="none">
<path d="M4028 8354 c-2 -1 -41 -5 -88 -8 -47 -4 -101 -9 -120 -11 -19 -3 -57
-7 -85 -10 -47 -4 -155 -23 -292 -50 -13 -3 -33 -7 -45 -9 -34 -7 -231 -56
-246 -61 -7 -2 -14 -5 -17 -5 -3 0 -24 -8 -47 -16 -24 -9 -50 -17 -58 -19
-134 -29 -728 -293 -761 -338 -3 -5 -8 -7 -10 -6 -5 4 -179 -100 -197 -117 -6
-7 -21 -16 -32 -19 -11 -3 -20 -10 -20 -14 0 -4 -11 -13 -25 -19 -14 -7 -31
-16 -38 -22 -7 -6 -52 -40 -102 -77 -49 -36 -92 -69 -95 -73 -3 -3 -14 -13
-26 -21 -22 -15 -113 -93 -197 -169 -108 -97 -248 -243 -347 -360 -25 -29 -50
-58 -55 -64 -65 -70 -263 -351 -337 -477 -29 -50 -61 -105 -72 -122 -41 -71
-198 -393 -205 -422 -1 -5 -10 -28 -20 -51 -10 -22 -24 -58 -31 -80 -7 -21
-16 -43 -20 -49 -5 -5 -8 -13 -9 -18 0 -4 -18 -65 -40 -135 -34 -109 -50 -162
-57 -194 -1 -5 -3 -10 -4 -13 -3 -6 -3 -5 -15 -60 -4 -22 -9 -44 -11 -50 -5
-19 -14 -60 -19 -90 -3 -16 -8 -37 -10 -45 -4 -14 -8 -38 -20 -112 -3 -18 -7
-44 -10 -58 -2 -14 -7 -49 -10 -79 -4 -30 -8 -63 -11 -74 -18 -97 -25 -599
-11 -777 12 -140 21 -224 31 -275 2 -11 6 -41 10 -66 7 -48 13 -80 20 -114 3
-11 14 -63 26 -115 11 -52 23 -106 25 -119 2 -13 8 -35 13 -50 9 -22 17 -53
27 -96 8 -32 83 -246 118 -335 23 -58 40 -108 39 -112 -1 -5 3 -8 8 -8 5 0 9
-3 8 -7 -3 -8 53 -130 91 -203 111 -210 109 -207 181 -325 24 -38 47 -71 51
-73 5 -2 9 -8 9 -14 0 -5 11 -24 25 -42 14 -18 25 -36 25 -40 0 -4 6 -13 13
-20 6 -8 19 -24 27 -36 8 -12 27 -36 42 -54 15 -17 28 -36 28 -43 0 -6 3 -13
8 -15 4 -1 35 -37 68 -78 106 -131 116 -141 289 -315 143 -144 232 -226 303
-280 7 -5 21 -17 30 -26 50 -46 306 -229 321 -229 5 0 11 -4 13 -8 3 -8 118
-82 148 -95 8 -4 33 -18 55 -32 39 -25 363 -189 378 -193 4 0 29 -11 55 -23
26 -11 52 -22 57 -23 6 -2 19 -7 30 -11 140 -57 392 -138 470 -152 17 -3 37
-9 45 -13 8 -4 38 -12 65 -16 56 -9 64 -11 68 -14 1 -1 11 -3 22 -5 11 -1 41
-8 67 -14 27 -6 51 -11 55 -10 5 1 10 1 13 -1 3 -1 17 -3 31 -5 15 -2 44 -6
65 -10 22 -3 55 -8 74 -11 19 -2 51 -6 70 -8 19 -3 79 -8 133 -12 l97 -7 0
302 0 301 -32 1 c-18 0 -40 2 -49 4 -9 1 -47 6 -85 10 -94 9 -178 22 -269 41
-30 6 -37 7 -105 19 -19 3 -42 9 -50 12 -8 3 -24 8 -35 9 -41 7 -296 85 -340
104 -18 7 -50 20 -65 25 -46 16 -164 65 -180 76 -8 5 -22 12 -30 15 -51 21
-198 95 -270 137 -111 66 -324 207 -328 218 -2 5 -8 9 -14 9 -5 0 -15 6 -22
13 -7 6 -28 23 -46 37 -120 89 -378 330 -460 430 -11 14 -28 34 -38 45 -10 11
-49 58 -86 105 -38 47 -77 95 -87 108 -10 12 -19 25 -19 27 0 6 -39 63 -55 80
-5 7 -19 28 -30 48 -11 20 -23 37 -27 37 -5 0 -8 7 -8 15 0 8 -4 15 -8 15 -4
0 -13 12 -20 28 -6 15 -28 54 -47 87 -34 57 -146 280 -178 355 -99 227 -193
550 -232 790 -37 235 -61 596 -41 629 4 5 2 12 -4 16 -6 4 -8 10 -5 14 2 5 7
55 10 112 3 57 7 120 10 139 2 19 6 60 9 90 8 76 55 331 78 415 5 22 12 49 14
60 2 11 8 31 13 45 8 21 25 79 37 125 8 32 95 256 125 325 35 76 133 275 140
280 3 3 8 12 12 20 28 65 174 288 279 425 140 182 371 421 533 550 20 17 42
35 49 40 6 6 38 31 71 55 33 25 62 48 65 51 3 4 15 9 28 13 12 4 22 11 22 16
0 7 134 98 180 123 8 4 33 19 55 32 22 13 65 36 95 52 30 15 57 31 58 36 2 4
8 7 12 7 5 0 49 19 97 43 49 24 144 65 213 91 69 27 134 52 145 57 25 10 185
60 205 64 8 2 52 13 97 24 45 12 94 23 110 25 15 2 35 6 43 9 13 5 77 16 130
23 8 1 35 5 60 9 48 8 66 10 175 19 39 4 76 9 83 11 9 3 12 73 12 303 0 259
-2 299 -15 299 -8 0 -16 -1 -17 -3z"/>
<path d="M4500 8054 c0 -282 1 -303 18 -302 9 1 42 -2 72 -5 30 -4 82 -10 115
-13 81 -9 86 -10 120 -17 17 -3 48 -9 70 -12 22 -3 47 -7 55 -10 8 -2 31 -7
50 -9 19 -3 69 -15 110 -26 41 -11 84 -23 96 -25 121 -27 437 -146 599 -227
164 -83 317 -169 343 -195 7 -7 20 -13 28 -13 8 0 14 -4 14 -8 0 -4 15 -16 33
-27 43 -25 218 -155 238 -177 9 -10 20 -18 23 -18 4 0 13 -6 20 -12 7 -7 41
-38 76 -68 79 -69 256 -246 312 -312 24 -28 55 -64 71 -82 33 -37 36 -42 67
-86 13 -19 33 -44 43 -55 26 -28 180 -261 208 -315 13 -25 29 -52 35 -60 10
-14 122 -225 124 -235 1 -7 30 -76 51 -122 10 -23 19 -44 19 -46 0 -3 8 -22
17 -43 9 -22 18 -48 20 -59 2 -10 9 -23 16 -27 6 -4 9 -8 5 -8 -4 0 0 -19 8
-42 9 -24 17 -50 19 -58 2 -8 13 -41 24 -72 11 -32 18 -58 15 -58 -3 0 0 -8 5
-19 6 -10 13 -33 16 -52 3 -19 9 -43 12 -54 4 -11 8 -28 10 -37 2 -10 5 -28 7
-40 2 -13 5 -23 6 -23 1 0 3 -9 5 -20 1 -11 10 -60 18 -110 9 -49 19 -115 22
-145 3 -30 8 -71 10 -90 20 -154 20 -506 0 -675 -2 -16 -6 -61 -10 -100 -4
-38 -9 -74 -13 -79 -3 -5 -6 -23 -7 -40 -1 -17 -5 -47 -9 -66 -4 -19 -8 -42
-10 -50 -15 -78 -20 -101 -31 -142 -8 -27 -11 -48 -8 -48 3 0 0 -7 -7 -15 -7
-8 -10 -15 -7 -15 3 0 -2 -21 -10 -47 -8 -27 -23 -77 -33 -113 -10 -36 -28
-85 -39 -110 -11 -24 -17 -48 -15 -52 3 -4 1 -8 -4 -8 -5 0 -9 -6 -9 -12 0
-25 -130 -318 -146 -329 -5 -3 -8 -9 -8 -13 1 -12 -33 -76 -41 -76 -5 0 -7 -4
-4 -8 3 -5 -22 -53 -54 -107 -33 -54 -60 -102 -60 -106 0 -5 -4 -9 -10 -9 -5
0 -10 -7 -10 -15 0 -8 -4 -15 -8 -15 -5 0 -14 -10 -19 -22 -9 -18 -91 -134
-130 -183 -4 -6 -26 -33 -48 -60 -22 -28 -44 -55 -50 -61 -233 -261 -359 -380
-573 -542 -12 -9 -28 -22 -35 -27 -36 -31 -238 -163 -334 -218 -65 -38 -346
-179 -351 -177 -1 1 -35 -12 -75 -28 -98 -40 -111 -45 -117 -47 -3 0 -30 -9
-60 -20 -30 -10 -55 -18 -55 -17 0 1 -30 -9 -67 -22 -38 -14 -68 -23 -68 -21
0 2 -18 -2 -40 -10 -22 -8 -43 -14 -45 -14 -3 0 -18 -2 -33 -5 -15 -4 -36 -8
-47 -10 -11 -3 -56 -12 -100 -22 -44 -9 -96 -18 -115 -20 -19 -2 -46 -5 -60
-8 -47 -9 -95 -15 -175 -21 -44 -4 -83 -9 -87 -12 -5 -2 -8 -139 -8 -303 l0
-299 23 4 c12 2 60 6 107 10 47 3 99 8 115 10 17 2 48 7 70 9 22 3 51 8 65 10
14 2 59 10 100 16 41 7 84 14 95 17 11 2 29 6 40 8 11 3 29 7 40 9 11 2 61 14
110 26 50 12 98 23 107 25 9 2 25 8 35 13 10 6 20 10 23 10 29 -1 320 102 465
165 115 49 336 160 424 212 61 36 228 140 236 148 10 8 186 134 213 152 8 6
25 19 37 30 12 11 41 36 65 55 181 147 375 339 530 525 41 50 80 95 85 101 6
7 19 24 30 40 11 15 37 49 58 76 20 26 37 52 37 57 0 5 4 11 9 13 5 1 30 37
57 78 26 41 50 77 53 80 3 3 12 15 19 28 6 12 18 32 25 45 6 12 14 24 17 27 4
4 18 29 64 115 6 11 13 22 16 25 17 17 171 351 217 470 31 81 111 320 117 351
3 13 10 40 16 59 6 19 13 44 15 55 3 11 7 32 11 47 3 15 5 29 4 30 -1 2 3 15
9 29 5 15 12 44 16 66 3 21 8 50 11 63 3 14 7 34 8 45 2 11 4 20 5 20 1 0 4
11 6 25 8 62 16 118 21 155 2 22 6 56 9 75 26 210 27 743 1 890 -3 14 -7 54
-10 89 -4 35 -8 73 -11 85 -2 11 -7 35 -9 51 -3 17 -8 46 -11 65 -3 19 -7 44
-10 55 -2 11 -5 23 -6 27 0 4 -10 45 -21 90 -10 46 -21 94 -23 107 -2 13 -8
35 -14 50 -6 14 -12 35 -14 46 -2 11 -6 27 -9 35 -3 8 -22 65 -41 125 -40 123
-72 215 -92 260 -7 17 -19 46 -28 65 -53 123 -124 268 -183 377 -39 70 -124
213 -135 227 -20 25 -79 119 -79 126 0 5 -3 10 -8 12 -4 2 -25 28 -47 58 -63
87 -120 160 -210 264 -102 119 -274 296 -287 296 -5 0 -6 5 -3 10 3 6 3 10 -2
10 -4 0 -21 12 -38 28 -16 15 -64 56 -105 92 -41 36 -77 67 -80 70 -3 3 -32
25 -65 50 -33 25 -62 47 -65 50 -41 41 -397 272 -495 320 -16 8 -32 17 -35 20
-3 3 -39 21 -80 40 -41 19 -76 38 -78 43 -2 4 -8 7 -13 7 -4 0 -32 11 -61 24
-148 67 -283 119 -292 113 -1 -1 -9 3 -17 9 -8 6 -66 28 -129 47 -98 30 -136
42 -215 63 -44 12 -123 31 -165 39 -14 3 -36 8 -50 12 -28 7 -37 8 -95 17 -22
3 -53 9 -70 12 -31 7 -63 12 -125 18 -19 2 -55 6 -80 9 -64 8 -170 19 -202 21
l-28 2 0 -302z"/>
</g>
</svg>
